<?xml version="1.0" standalone="no"?>
<!DOCTYPE svg PUBLIC "-//W3C//DTD SVG 20010904//EN"
 "http://www.w3.org/TR/2001/REC-SVG-20010904/DTD/svg10.dtd">
<svg version="1.0" xmlns="http://www.w3.org/2000/svg"
 width="126.000000pt" height="36.000000pt" viewBox="0 0 126.000000 36.000000"
 preserveAspectRatio="xMidYMid meet">

<g transform="translate(0.000000,36.000000) scale(0.100000,-0.100000)"
fill="#000000" stroke="none">
<path d="M163 252 c-101 -46 -143 -70 -143 -82 0 -12 41 -35 140 -80 77 -35
143 -60 146 -57 16 16 -12 36 -115 81 -61 28 -111 53 -111 56 0 4 48 29 108
55 121 55 125 57 120 77 -2 11 -38 -1 -145 -50z"/>
<path d="M650 170 c0 -93 4 -150 10 -150 6 0 10 57 10 150 0 93 -4 150 -10
150 -6 0 -10 -57 -10 -150z"/>
<path d="M942 299 c2 -15 32 -33 116 -71 61 -28 112 -54 112 -58 0 -4 -50 -29
-111 -56 -103 -45 -131 -65 -115 -81 3 -3 69 22 146 57 106 48 140 68 140 82
0 10 -1 18 -3 18 -2 0 -67 29 -146 65 -125 57 -142 62 -139 44z"/>
<path d="M372 173 l2 -88 6 70 6 70 32 -68 c18 -37 37 -65 42 -62 6 3 10 10
10 14 0 5 12 35 28 67 l27 59 5 -74 c3 -47 10 -76 18 -79 8 -2 12 10 12 41 0
73 -12 137 -25 137 -7 0 -26 -30 -42 -66 l-30 -67 -31 67 c-45 96 -62 90 -60
-21z"/>
<path d="M780 160 c0 -73 3 -90 15 -90 11 0 15 11 15 40 0 38 2 40 29 40 36 0
61 23 61 55 0 30 -26 45 -79 45 l-41 0 0 -90z m85 40 c0 -31 -3 -35 -27 -38
-27 -3 -28 -1 -28 38 0 39 1 41 28 38 24 -3 27 -7 27 -38z"/>
</g>
</svg>
